<svg width="38" height="37" viewBox="0 0 38 37" fill="none" xmlns="http://www.w3.org/2000/svg">
<rect x="0.759766" y="0.315674" width="36" height="36" rx="8" fill="white"/>
<g clip-path="url(#clip0_1129_3017)">
<path d="M17.635 7.45361C16.9592 7.45361 16.3111 7.72208 15.8333 8.19996L8.32685 15.7065C8.04254 15.9908 7.90039 16.3635 7.90039 16.7361C7.90039 17.1087 8.04255 17.4814 8.32686 17.7657L13.246 22.6849V13.9761C13.246 13.3262 13.7688 12.7993 14.4187 12.7993C17.1645 12.7993 23.8481 12.7993 24.7598 12.7993L30.1054 7.45369L17.635 7.45361Z" fill="#262233"/>
<path d="M13.246 24.3131H23.583C24.2329 24.3131 24.7597 23.7862 24.7597 23.1363V14.4275L29.6789 19.3467C29.9632 19.6311 30.1054 20.0037 30.1054 20.3763C30.1054 20.749 29.9632 21.1216 29.6789 21.4059L22.1725 28.9125C21.6946 29.3903 21.0465 29.6588 20.3707 29.6588L7.90039 29.6587L13.246 24.3131Z" fill="#262233"/>
</g>
<defs>
<clipPath id="clip0_1129_3017">
<rect width="22.2052" height="22.2052" fill="white" transform="translate(7.90039 7.45361)"/>
</clipPath>
</defs>
</svg>
