<svg width="138" height="151" viewBox="0 0 138 151" fill="none" xmlns="http://www.w3.org/2000/svg">
<g filter="url(#filter0_f_1110_7225)">
<path d="M14.3672 49.5378V101.366C14.3672 104.764 16.1747 107.9 19.1129 109.596L63.9167 135.51C66.8549 137.205 70.47 137.205 73.4005 135.51L118.204 109.596C121.142 107.9 122.95 104.764 122.95 101.366V49.5378C122.95 46.1396 121.142 43.0034 118.204 41.3082L73.4082 15.3941C70.47 13.6989 66.8549 13.6989 63.9244 15.3941L19.1206 41.3082C16.1824 43.0034 14.3749 46.1396 14.3749 49.5378H14.3672Z" fill="url(#paint0_linear_1110_7225)"/>
</g>
<path d="M15.7347 63.1052C20.932 63.1052 25.1452 58.892 25.1452 53.6947C25.1452 48.4974 20.932 44.2842 15.7347 44.2842C10.5374 44.2842 6.32422 48.4974 6.32422 53.6947C6.32422 58.892 10.5374 63.1052 15.7347 63.1052Z" fill="#93254B"/>
<path d="M15.7347 88.7026C20.932 88.7026 25.1452 84.4894 25.1452 79.2921C25.1452 74.0948 20.932 69.8816 15.7347 69.8816C10.5374 69.8816 6.32422 74.0948 6.32422 79.2921C6.32422 84.4894 10.5374 88.7026 15.7347 88.7026Z" fill="#93254B"/>
<path d="M15.7347 114.28C20.932 114.28 25.1452 110.067 25.1452 104.869C25.1452 99.6721 20.932 95.4589 15.7347 95.4589C10.5374 95.4589 6.32422 99.6721 6.32422 104.869C6.32422 110.067 10.5374 114.28 15.7347 114.28Z" fill="#93254B"/>
<path d="M15.7347 139.877C20.932 139.877 25.1452 135.664 25.1452 130.467C25.1452 125.269 20.932 121.056 15.7347 121.056C10.5374 121.056 6.32422 125.269 6.32422 130.467C6.32422 135.664 10.5374 139.877 15.7347 139.877Z" fill="#93254B"/>
<path d="M39.8642 63.1052C45.0615 63.1052 49.2748 58.892 49.2748 53.6947C49.2748 48.4974 45.0615 44.2842 39.8642 44.2842C34.667 44.2842 30.4537 48.4974 30.4537 53.6947C30.4537 58.892 34.667 63.1052 39.8642 63.1052Z" fill="#93254B"/>
<path d="M39.8642 88.7026C45.0615 88.7026 49.2748 84.4894 49.2748 79.2921C49.2748 74.0948 45.0615 69.8816 39.8642 69.8816C34.667 69.8816 30.4537 74.0948 30.4537 79.2921C30.4537 84.4894 34.667 88.7026 39.8642 88.7026Z" fill="#93254B"/>
<path d="M39.8642 114.28C45.0615 114.28 49.2748 110.067 49.2748 104.869C49.2748 99.6721 45.0615 95.4589 39.8642 95.4589C34.667 95.4589 30.4537 99.6721 30.4537 104.869C30.4537 110.067 34.667 114.28 39.8642 114.28Z" fill="#93254B"/>
<path d="M39.8642 139.877C45.0615 139.877 49.2748 135.664 49.2748 130.467C49.2748 125.269 45.0615 121.056 39.8642 121.056C34.667 121.056 30.4537 125.269 30.4537 130.467C30.4537 135.664 34.667 139.877 39.8642 139.877Z" fill="#93254B"/>
<path d="M63.9938 63.1052C69.191 63.1052 73.4043 58.892 73.4043 53.6947C73.4043 48.4974 69.191 44.2842 63.9938 44.2842C58.7965 44.2842 54.5832 48.4974 54.5832 53.6947C54.5832 58.892 58.7965 63.1052 63.9938 63.1052Z" fill="#93254B"/>
<path d="M63.9938 88.7026C69.191 88.7026 73.4043 84.4894 73.4043 79.2921C73.4043 74.0948 69.191 69.8816 63.9938 69.8816C58.7965 69.8816 54.5832 74.0948 54.5832 79.2921C54.5832 84.4894 58.7965 88.7026 63.9938 88.7026Z" fill="#93254B"/>
<path d="M63.9938 114.28C69.191 114.28 73.4043 110.067 73.4043 104.869C73.4043 99.6721 69.191 95.4589 63.9938 95.4589C58.7965 95.4589 54.5832 99.6721 54.5832 104.869C54.5832 110.067 58.7965 114.28 63.9938 114.28Z" fill="#93254B"/>
<path d="M63.9938 139.877C69.191 139.877 73.4043 135.664 73.4043 130.467C73.4043 125.269 69.191 121.056 63.9938 121.056C58.7965 121.056 54.5832 125.269 54.5832 130.467C54.5832 135.664 58.7965 139.877 63.9938 139.877Z" fill="#93254B"/>
<path d="M88.1233 63.1052C93.3205 63.1052 97.5338 58.892 97.5338 53.6947C97.5338 48.4974 93.3205 44.2842 88.1233 44.2842C82.926 44.2842 78.7128 48.4974 78.7128 53.6947C78.7128 58.892 82.926 63.1052 88.1233 63.1052Z" fill="#93254B"/>
<path d="M88.1233 88.7026C93.3205 88.7026 97.5338 84.4894 97.5338 79.2921C97.5338 74.0948 93.3205 69.8816 88.1233 69.8816C82.926 69.8816 78.7128 74.0948 78.7128 79.2921C78.7128 84.4894 82.926 88.7026 88.1233 88.7026Z" fill="#93254B"/>
<path d="M88.1233 114.28C93.3205 114.28 97.5338 110.067 97.5338 104.869C97.5338 99.6721 93.3205 95.4589 88.1233 95.4589C82.926 95.4589 78.7128 99.6721 78.7128 104.869C78.7128 110.067 82.926 114.28 88.1233 114.28Z" fill="#93254B"/>
<path d="M88.1233 139.877C93.3205 139.877 97.5338 135.664 97.5338 130.467C97.5338 125.269 93.3205 121.056 88.1233 121.056C82.926 121.056 78.7128 125.269 78.7128 130.467C78.7128 135.664 82.926 139.877 88.1233 139.877Z" fill="#93254B"/>
<path d="M88.1234 63.1053C93.3207 63.1053 97.5339 58.8921 97.5339 53.6948C97.5339 48.4975 93.3207 44.2843 88.1234 44.2843C82.9261 44.2843 78.7129 48.4975 78.7129 53.6948C78.7129 58.8921 82.9261 63.1053 88.1234 63.1053Z" fill="black"/>
<defs>
<filter id="filter0_f_1110_7225" x="0.291637" y="0.0471306" width="136.734" height="150.809" filterUnits="userSpaceOnUse" color-interpolation-filters="sRGB">
<feFlood flood-opacity="0" result="BackgroundImageFix"/>
<feBlend mode="normal" in="SourceGraphic" in2="BackgroundImageFix" result="shape"/>
<feGaussianBlur stdDeviation="7.03778" result="effect1_foregroundBlur_1110_7225"/>
</filter>
<linearGradient id="paint0_linear_1110_7225" x1="110.476" y1="122.732" x2="-7.95844" y2="85.8883" gradientUnits="userSpaceOnUse">
<stop stop-color="#E76B2D"/>
<stop offset="1" stop-color="#E2EAFB"/>
</linearGradient>
</defs>
</svg>
