<svg width="99" height="110" viewBox="0 0 99 110" fill="none" xmlns="http://www.w3.org/2000/svg">
<path d="M89.5828 54.7398V34.9337C89.5828 32.4335 88.2529 30.126 86.0911 28.8787L53.1265 9.81229C50.9647 8.56501 48.3049 8.56501 46.1487 9.81229L13.1841 28.8787C11.0223 30.126 9.69238 32.4335 9.69238 34.9337L9.69238 54.7398L89.5828 54.7398Z" fill="url(#paint0_linear_1110_7267)"/>
<mask id="mask0_1110_7267" style="mask-type:alpha" maskUnits="userSpaceOnUse" x="2" y="0" width="95" height="108">
<path d="M2.29492 31.1828V76.8172C2.29492 79.8093 3.87111 82.5707 6.43324 84.0633L45.5024 106.881C48.0646 108.373 51.2169 108.373 53.7724 106.881L92.8415 84.0633C95.4037 82.5707 96.9799 79.8093 96.9799 76.8172V31.1828C96.9799 28.1907 95.4037 25.4293 92.8415 23.9367L53.7791 1.11949C51.2169 -0.373163 48.0646 -0.373163 45.5091 1.11949L6.43994 23.9367C3.87781 25.4293 2.30163 28.1907 2.30163 31.1828H2.29492Z" fill="url(#paint1_linear_1110_7267)"/>
</mask>
<g mask="url(#mask0_1110_7267)">
<rect x="-5.10254" y="54.7397" width="109.479" height="63.6164" fill="url(#paint2_linear_1110_7267)"/>
</g>
<path d="M59.9747 48.6946C59.9747 43.0342 55.3351 38.4658 49.6277 38.4658C43.9203 38.4658 39.2808 43.0524 39.2808 48.6946C39.2808 53.2083 42.2265 57.0305 46.3321 58.3955V69.5343H53.2915V58.2681C57.213 56.8121 59.9931 53.0809 59.9931 48.6946H59.9747Z" fill="white"/>
<circle cx="49.6371" cy="48.822" r="4.43836" fill="black"/>
<defs>
<linearGradient id="paint0_linear_1110_7267" x1="80.4048" y1="49.4868" x2="10.8841" y2="6.92997" gradientUnits="userSpaceOnUse">
<stop stop-color="#FFBBE4"/>
<stop offset="1" stop-color="#E2EAFB"/>
</linearGradient>
<linearGradient id="paint1_linear_1110_7267" x1="86.1022" y1="95.63" x2="-17.3483" y2="63.7577" gradientUnits="userSpaceOnUse">
<stop stop-color="#101010"/>
<stop offset="0.111577" stop-color="#0144C7"/>
</linearGradient>
<linearGradient id="paint2_linear_1110_7267" x1="91.7996" y1="111.07" x2="-4.09599" y2="53.0754" gradientUnits="userSpaceOnUse">
<stop stop-color="#FFBBE4"/>
<stop offset="1" stop-color="#E2EAFB"/>
</linearGradient>
</defs>
</svg>
