<svg width="128" height="135" viewBox="0 0 128 135" fill="none" xmlns="http://www.w3.org/2000/svg">
<g filter="url(#filter0_f_1110_7308)">
<path d="M14.9204 44.3749V90.3961C14.9204 93.4135 16.5254 96.1983 19.1344 97.7036L58.9183 120.714C61.5273 122.22 64.7373 122.22 67.3395 120.714L107.123 97.7036C109.732 96.1983 111.337 93.4135 111.337 90.3961V44.3749C111.337 41.3574 109.732 38.5726 107.123 37.0673L67.3463 14.0567C64.7373 12.5514 61.5273 12.5514 58.9251 14.0567L19.1413 37.0673C16.5323 38.5726 14.9272 41.3574 14.9272 44.3749H14.9204Z" fill="url(#paint0_linear_1110_7308)"/>
</g>
<path d="M75.6061 57.4114C75.6061 50.5801 70.0068 45.0667 63.1187 45.0667C56.2307 45.0667 50.6313 50.602 50.6313 57.4114C50.6313 62.8589 54.1865 67.4717 59.1414 69.1191V82.5621H67.5404V68.9654C72.2732 67.2081 75.6283 62.7051 75.6283 57.4114H75.6061Z" fill="white"/>
<path d="M14.0017 20.1409C-3.81761 9.85644 -3.81761 35.0498 14.0017 24.7654C-3.81761 35.0498 18.0012 47.6555 18.0012 27.0687C18.0012 47.6555 39.8379 35.0498 22.0007 24.7654C39.82 35.0498 39.82 9.85644 22.0007 20.1409C39.82 9.85644 18.0012 -2.74919 18.0012 17.8376C18.0012 -2.74919 -3.83547 9.85644 14.0017 20.1409Z" fill="#93254B"/>
<path d="M106.348 25.801C109.008 24.4261 112.9 23.7655 118.828 23.0691C112.918 22.3728 109.008 21.7122 106.348 20.3373C107.258 17.4805 109.544 14.2666 113.24 9.58861C108.562 13.2667 105.348 15.57 102.491 16.4806C101.116 13.8202 100.456 9.92786 99.7592 4C99.0629 9.91 98.4022 13.8024 97.0274 16.4806C94.1706 15.57 90.9567 13.2846 86.2787 9.58861C89.9568 14.2666 92.2601 17.4805 93.1707 20.3373C90.5103 21.7122 86.6179 22.3728 80.6901 23.0691C86.6001 23.7655 90.4925 24.4261 93.1707 25.801C92.2601 28.6578 89.9747 31.8716 86.2787 36.5497C90.9567 32.8715 94.1706 30.5682 97.0274 29.6576C98.4022 32.318 99.0629 36.2104 99.7592 42.1383C100.456 36.2283 101.116 32.3359 102.491 29.6576C105.348 30.5682 108.562 32.8537 113.24 36.5497C109.562 31.8716 107.258 28.6578 106.348 25.801Z" fill="#93254B"/>
<path d="M19.7867 128.503C25.9991 128.503 31.0353 123.467 31.0353 117.254C31.0353 111.042 25.9991 106.006 19.7867 106.006C13.5742 106.006 8.53804 111.042 8.53804 117.254C8.53804 123.467 13.5742 128.503 19.7867 128.503Z" fill="#93254B"/>
<path d="M73.1731 100.203C90.7424 104.149 97.5809 107.666 100.009 106.22C98.8843 103.684 90.7424 104.149 73.1731 100.203Z" fill="#93254B"/>
<path d="M83.529 132.038C94.3849 115.326 100.706 109.291 100.116 106.523C97.3309 106.845 94.3849 115.326 83.529 132.038Z" fill="#93254B"/>
<path d="M100.259 80.5265C100.259 97.2388 98.1701 104.202 100.259 106.041C102.348 104.202 100.259 97.2388 100.259 80.5265Z" fill="#93254B"/>
<path d="M127.363 100.203C109.794 104.149 101.67 103.702 100.527 106.22C102.955 107.666 109.794 104.149 127.363 100.203Z" fill="#93254B"/>
<path d="M100.42 106.523C99.8306 109.291 106.151 115.326 117.007 132.038C106.151 115.326 103.205 106.845 100.42 106.523Z" fill="#93254B"/>
<path d="M100.259 106.041C100.259 106.041 100.098 106.184 99.9913 106.238C100.027 106.327 100.063 106.434 100.098 106.541C100.206 106.541 100.313 106.541 100.42 106.541C100.438 106.434 100.473 106.327 100.527 106.238C100.438 106.184 100.348 106.113 100.259 106.041Z" fill="#93254B"/>
<defs>
<filter id="filter0_f_1110_7308" x="2.42191" y="0.429237" width="121.414" height="133.913" filterUnits="userSpaceOnUse" color-interpolation-filters="sRGB">
<feFlood flood-opacity="0" result="BackgroundImageFix"/>
<feBlend mode="normal" in="SourceGraphic" in2="BackgroundImageFix" result="shape"/>
<feGaussianBlur stdDeviation="6.24925" result="effect1_foregroundBlur_1110_7308"/>
</filter>
<linearGradient id="paint0_linear_1110_7308" x1="100.261" y1="109.368" x2="-4.90381" y2="76.6526" gradientUnits="userSpaceOnUse">
<stop stop-color="#E76B2D"/>
<stop offset="1" stop-color="#E2EAFB"/>
</linearGradient>
</defs>
</svg>
